PathFileType	4	(X/Y/Z)	C:\Users\WrightLab\Desktop\Jo\P1.2Trial5.trc
DataRate	CameraRate	NumFrames	NumMarkers	Units	OrigDataRate	OrigDataStartFrame	OrigNumFrames
100.00	100.00	       13	19	mm	100.00	437	       872
Frame#	Time	Headset_Front			Headset_Back			Headset_Left			Headset_Right			Left_Shoulder			Right_Shoulder			Sternum			C7			Left Elbow			Right Elbow			Left Wrist			Right Wrist			Left ASIS			Right ASIS			S2			Left Knee			Right Knee			Left Ankle			Right Ankle			
		X1	Y1	Z1	X2	Y2	Z2	X3	Y3	Z3	X4	Y4	Z4	X5	Y5	Z5	X6	Y6	Z6	X7	Y7	Z7	X8	Y8	Z8	X9	Y9	Z9	X10	Y10	Z10	X11	Y11	Z11	X12	Y12	Z12	X13	Y13	Z13	X14	Y14	Z14	X15	Y15	Z15	X16	Y16	Z16	X17	Y17	Z17	X18	Y18	Z18	X19	Y19	Z19	

437	4.360	-655.48352	1357.09717	503.27725	-784.19958	1531.18262	721.46088	-829.44568	1448.76587	577.84460	-608.74445	1414.04541	632.82770	-983.72595	1250.21875	648.03473	-579.12140	1257.53101	763.02618	-745.23187	1179.89648	598.51953	-813.42664	1326.00903	811.45233	-1050.73840	965.04016	672.36993	-509.53482	1012.59851	827.30157	-946.57318	840.92157	498.10342	-431.87729	783.14716	699.04169	-858.38348	929.89331	886.63477	-615.73212	861.27136	685.18549	-867.59033	872.66296	575.13849	-861.58936	485.61346	495.36777	-660.94287	422.96411	767.87030	-914.71942	130.98505	482.21967				
438	4.370	-652.03406	1356.49451	494.32166	-781.86633	1530.82751	714.21753	-826.15515	1448.11890	570.28375	-605.97607	1412.78650	626.85223	-980.39148	1249.05872	638.93384	-574.29993	1259.79407	760.80756	-741.70160	1179.33105	591.25854	-808.42566	1323.62378	802.29413	-1046.62549	963.80457	662.94507	-507.30865	1011.62488	821.29462	-941.58203	839.55194	490.47702	-429.99692	781.65497	693.27484	-857.16052	929.82660	879.64337	-612.79523	859.96790	679.49072	-863.19086	871.06848	569.20154	-852.91357	484.88000	489.70203	-659.39520	422.17432	763.77167	-900.76471	134.54364	464.52417				
439	4.380	-648.49084	1355.46057	487.71085	-779.36035	1530.11426	706.76630	-822.85999	1447.36597	562.39215	-605.42334	1410.26575	615.55084	-977.18909	1248.44580	630.45227	-574.02234	1255.53845	747.74994	-738.10474	1178.26990	584.44098	-805.68713	1322.54468	794.35608	-1043.46692	963.06421	653.93756	-505.80054	1010.24799	814.36517	-936.96625	838.47223	483.21594	-427.14124	780.33075	688.96643	-855.14093	928.91016	872.05573	-609.88470	858.99146	672.74915	-858.59833	869.82788	561.84271	-843.73065	483.75659	484.37424	-656.82312	421.73914	759.33636	-885.14423	139.22412	449.30267				
440	4.390	-645.22394	1353.53516	481.51880	-776.44299	1529.01563	699.13086	-819.75305	1446.27795	554.95129	-599.25317	1410.70325	611.90540	-972.93256	1247.00269	622.08551	-571.26086	1254.22961	742.11292	-734.56512	1177.09119	576.22626	-804.97528	1322.09778	783.55316	-1041.72314	962.32074	644.47552	-503.10641	1008.94122	808.61298	-931.89984	836.97192	475.11926	-424.43015	778.86993	683.62457	-853.39606	928.20734	864.71985	-606.85327	857.78613	667.59814	-854.06616	868.45239	554.52112	-834.91376	483.35919	479.00955	-654.34637	420.50180	753.66327	-871.95825	143.30730	435.59854	-793.62921	85.43726	851.27069	
441	4.400	-641.80176	1352.38037	472.83887	-773.55560	1527.82935	691.45361	-816.21082	1444.98560	546.83258	-595.98035	1409.36450	605.28418	-970.03973	1245.96423	612.74231	-566.39459	1256.98145	740.16968	-731.04437	1175.93616	569.00409	-802.70776	1321.23730	775.39105	-1038.64929	960.82697	635.39233	-501.85092	1007.95013	802.85559	-927.08807	835.39282	466.96088	-421.62845	777.21887	678.71570	-850.87000	927.11768	856.10077	-603.86890	857.52179	659.66675	-849.53613	867.95270	545.08301	-826.40393	482.88657	473.05771	-652.38477	419.87552	748.64539	-856.06744	148.63196	419.93280	-793.52679	83.75980	852.68384	
442	4.410	-638.47815	1351.39380	465.20059	-767.93372	1525.34290	682.17059	-813.06165	1443.94080	539.22357	-592.93323	1408.00464	599.15912	-967.02753	1244.54248	603.83264	-565.86084	1252.11047	727.92346	-727.34192	1174.52100	561.58148	-798.94104	1319.13586	770.32001	-1035.46863	959.56183	626.02832	-499.21863	1007.05664	795.81451	-922.70850	833.99878	459.19675	-418.51941	775.51825	674.28735	-848.50897	925.48700	848.57471	-600.74078	856.13922	654.67072	-845.22125	865.13397	539.99445	-818.48224	482.54044	467.41223	-649.10834	418.67142	744.28406							
443	4.420	-634.60999	1349.50208	457.62091	-765.08618	1524.08826	674.34070	-809.39783	1442.54175	530.79376	-589.82660	1406.65051	590.94067	-963.83978	1242.90784	595.20270	-561.19598	1253.72266	727.59302	-723.93817	1173.14880	553.47052	-796.77985	1318.11462	762.29999	-1032.41296	958.02765	616.66907	-497.54980	1005.80988	789.90222	-918.15735	832.53278	450.88998	-415.28232	773.27917	669.75781	-846.17694	923.72968	840.23810	-597.17810	854.85858	647.24811	-840.74976	864.46527	529.78485	-809.71094	482.42365	460.39847	-645.93939	417.52591	738.40271	-855.23486	143.63626	409.43591				
444	4.430	-630.93463	1348.37256	450.63730	-761.70825	1522.51489	666.00055	-806.11810	1441.28406	522.50482	-586.66321	1405.51587	582.86530	-960.59869	1241.35413	586.05554	-776.66602	1164.57141	643.28815	-720.78986	1171.73718	545.32648	-793.79877	1316.10962	753.53217	-1028.66931	956.49152	607.59875	-495.42999	1004.28729	783.01648	-913.71002	830.94006	442.29208	-412.12051	771.09436	665.66431	-843.75586	922.97345	831.63739	-593.79187	853.58136	641.20630	-836.54016	862.52533	522.67474	-801.84064	479.85760	455.89114	-643.09698	417.46558	732.55762	-820.75769	162.23431	382.01688				
445	4.440	-627.48236	1346.59900	442.81512	-759.42731	1521.38477	658.18079	-803.15094	1440.09412	514.34937	-583.85156	1403.62048	576.65265	-957.67645	1239.46667	577.62225	-554.86810	1250.63928	710.94867	-717.41559	1169.70068	537.66309	-791.91565	1315.25916	745.50409	-1026.69373	954.65228	597.97723	-492.47549	1002.95197	776.14984	-909.51129	829.31079	433.52496	-409.04413	768.90198	661.81323	-841.48065	921.39429	823.20990	-590.23163	853.11700	633.31134	-832.44318	860.48706	515.64697	-793.72162	479.16629	449.02481	-639.56659	415.84305	727.88519	-808.38275	165.30774	370.15585				
446	4.450	-624.06396	1345.61792	434.89920	-756.72473	1519.74475	649.81824	-800.45740	1439.08459	505.87900	-583.71307	1401.17908	564.88599	-954.82208	1237.67798	567.72900	-555.22406	1246.94604	698.99884	-714.49481	1168.48096	529.25458	-789.68097	1313.58472	737.00665	-1023.83612	952.93207	588.51410	-490.61520	1001.88635	769.12909	-905.54077	827.39355	424.51822	-406.89597	766.85040	658.27899	-838.95056	919.93427	814.97052	-586.92560	851.48334	629.98047	-828.14764	858.86768	506.19272	-785.48895	477.68616	441.72018	-636.38361	414.38773	723.93701	-797.68384	168.70053	357.98734				
447	4.460	-620.31476	1343.99744	427.17899	-754.19653	1518.30017	641.38513	-796.29193	1436.99304	497.05267	-577.70477	1400.81311	560.76208	-951.45825	1235.66101	559.30090	-550.42517	1248.65833	696.19757	-711.17017	1167.22095	520.91956	-787.40155	1312.39917	728.15826	-1020.70068	950.67230	578.98474	-488.09451	1000.55621	761.57642	-901.68561	825.93872	415.32407	-403.46130	764.47699	653.80090	-835.59668	917.47742	806.39954	-583.17468	851.38306	620.93756	-824.23499	855.49744	500.65186	-777.52301	475.71057	435.83099	-633.45007	412.96155	718.30731	-786.20801	170.26239	348.15875				
448	4.470	-616.34766	1342.38257	419.02060	-751.52136	1516.55786	632.52435	-793.13293	1435.40051	488.33243	-574.48877	1399.07227	554.08209	-948.51569	1233.65686	550.14435	-548.63837	1247.42322	689.13196	-707.66376	1164.98730	513.23566	-786.02679	1311.35132	717.01898	-1017.55005	948.56049	569.37195	-485.73691	999.40619	753.90680	-897.76245	824.20886	405.70245	-400.34161	762.04004	649.30536	-833.41382	916.43811	798.39740	-579.56995	850.09894	614.73456	-820.14581	853.21240	491.09738	-768.91180	474.57455	428.51395	-630.94885	411.57767	714.25061	-775.25342	171.99884	339.14310				
449	4.480	-612.89130	1341.39038	411.59164	-749.06317	1515.21692	624.29224	-789.68604	1434.00354	479.38885	-571.67932	1397.42126	546.14142	-946.12549	1231.81006	540.66791	-547.53491	1244.79834	676.48016	-704.62701	1163.13757	504.72910	-782.33209	1309.07434	710.49152	-1014.32367	946.15588	559.65063	-482.19165	999.19379	747.10187	-894.06531	822.47345	396.07751	-396.78339	760.24341	645.21149	-830.26154	914.18616	789.37280	-575.92896	849.01953	606.61090	-816.17664	851.29443	481.88220	-760.78308	474.06052	419.42334	-628.12122	410.09488	709.98047	-764.77124	171.73943	332.23022				
